<svg width="24" height="24" viewBox="0 0 24 24" fill="none" xmlns="http://www.w3.org/2000/svg">
<mask id="mask0_37032_15927" style="mask-type:alpha" maskUnits="userSpaceOnUse" x="0" y="0" width="24" height="24">
<rect width="24" height="24" fill="#D9D9D9"/>
</mask>
<g mask="url(#mask0_37032_15927)">
<path d="M6.09625 19.5C5.88342 19.5 5.70517 19.4282 5.5615 19.2845C5.418 19.141 5.34625 18.9628 5.34625 18.75C5.34625 18.5372 5.418 18.359 5.5615 18.2155C5.70517 18.0718 5.88342 18 6.09625 18H6.87875L8.80575 11.5405C8.91992 11.1455 9.1385 10.8317 9.4615 10.599C9.78467 10.3663 10.1437 10.25 10.5385 10.25H13.4615C13.8563 10.25 14.2153 10.3663 14.5385 10.599C14.8615 10.8317 15.0801 11.1455 15.1943 11.5405L17.1212 18H17.9038C18.1166 18 18.2948 18.0718 18.4385 18.2155C18.582 18.359 18.6538 18.5372 18.6538 18.75C18.6538 18.9628 18.582 19.141 18.4385 19.2845C18.2948 19.4282 18.1166 19.5 17.9038 19.5H6.09625ZM8.4595 18H15.5405L13.75 11.9712C13.7308 11.9006 13.694 11.8461 13.6395 11.8077C13.585 11.7692 13.5225 11.75 13.452 11.75H10.548C10.4775 11.75 10.415 11.7692 10.3605 11.8077C10.306 11.8461 10.2692 11.9006 10.25 11.9712L8.4595 18ZM11.25 7.19225V4.19225C11.25 3.97941 11.3218 3.80125 11.4655 3.65775C11.609 3.51408 11.7872 3.44225 12 3.44225C12.2128 3.44225 12.391 3.51408 12.5345 3.65775C12.6782 3.80125 12.75 3.97941 12.75 4.19225V7.19225C12.75 7.40508 12.6782 7.58333 12.5345 7.727C12.391 7.8705 12.2128 7.94225 12 7.94225C11.7872 7.94225 11.609 7.8705 11.4655 7.727C11.3218 7.58333 11.25 7.40508 11.25 7.19225ZM16.423 8.7155L18.5578 6.5905C18.6963 6.452 18.8677 6.38175 19.072 6.37975C19.2765 6.37791 19.4532 6.45133 19.602 6.6C19.7403 6.7385 19.8095 6.91091 19.8095 7.11725C19.8095 7.32375 19.7403 7.49616 19.602 7.6345L17.477 9.7845C17.3282 9.93333 17.1541 10.0093 16.9548 10.0125C16.7554 10.0157 16.5782 9.93966 16.423 9.7845C16.268 9.6295 16.1905 9.45133 16.1905 9.25C16.1905 9.04866 16.268 8.8705 16.423 8.7155ZM19 13.4422H22C22.2128 13.4422 22.391 13.5141 22.5345 13.6577C22.6782 13.8012 22.75 13.9794 22.75 14.1922C22.75 14.4051 22.6782 14.5833 22.5345 14.727C22.391 14.8705 22.2128 14.9422 22 14.9422H19C18.7872 14.9422 18.609 14.8705 18.4655 14.727C18.3218 14.5833 18.25 14.4051 18.25 14.1922C18.25 13.9794 18.3218 13.8012 18.4655 13.6577C18.609 13.5141 18.7872 13.4422 19 13.4422ZM6.523 9.76925L4.398 7.6345C4.25967 7.49616 4.1895 7.32475 4.1875 7.12025C4.18567 6.91575 4.25908 6.73916 4.40775 6.5905C4.54625 6.452 4.71867 6.38275 4.925 6.38275C5.13133 6.38275 5.30375 6.452 5.44225 6.5905L7.59225 8.7155C7.74092 8.86416 7.81692 9.03816 7.82025 9.2375C7.82342 9.43683 7.74742 9.61408 7.59225 9.76925C7.43708 9.92441 7.25892 10.002 7.05775 10.002C6.85642 10.002 6.67817 9.92441 6.523 9.76925ZM2 14.9422C1.78717 14.9422 1.609 14.8705 1.4655 14.727C1.32183 14.5833 1.25 14.4051 1.25 14.1922C1.25 13.9794 1.32183 13.8012 1.4655 13.6577C1.609 13.5141 1.78717 13.4422 2 13.4422H5C5.21283 13.4422 5.391 13.5141 5.5345 13.6577C5.67817 13.8012 5.75 13.9794 5.75 14.1922C5.75 14.4051 5.67817 14.5833 5.5345 14.727C5.391 14.8705 5.21283 14.9422 5 14.9422H2Z" fill="#D10000"/>
</g>
</svg>
