<svg width="16" height="16" viewBox="0 0 16 16" fill="none" xmlns="http://www.w3.org/2000/svg">
<mask id="mask0_37032_15943" style="mask-type:alpha" maskUnits="userSpaceOnUse" x="0" y="0" width="16" height="16">
<rect width="16" height="16" fill="#D9D9D9"/>
</mask>
<g mask="url(#mask0_37032_15943)">
<path d="M8.10345 14.7931C7.2708 14.7931 6.48644 14.6561 5.75035 14.3821C5.01441 14.1079 4.34697 13.7256 3.74805 13.2352L2.15126 14.809C2.0259 14.9363 1.86636 15 1.67264 15C1.47893 15 1.31839 14.9363 1.19103 14.809C1.06368 14.6818 1 14.5212 1 14.3274C1 14.1336 1.06368 13.9742 1.19103 13.849L2.76483 12.2749C2.27441 11.6762 1.89218 11.005 1.61816 10.2614C1.34398 9.51762 1.2069 8.72935 1.2069 7.89655C1.2069 5.97134 1.87502 4.34061 3.21126 3.00437C4.54751 1.66812 6.17824 1 8.10345 1H13.603C13.9909 1 14.3207 1.13586 14.5924 1.40759C14.8641 1.67931 15 2.00912 15 2.39701V7.89655C15 9.82192 14.3319 11.4526 12.9956 12.7887C11.6594 14.125 10.0287 14.7931 8.10345 14.7931ZM8.10345 13.4138C9.63601 13.4138 10.9387 12.8774 12.0115 11.8046C13.0843 10.7318 13.6207 9.42912 13.6207 7.89655V2.37931H8.10345C6.57088 2.37931 5.2682 2.91571 4.1954 3.98851C3.12261 5.0613 2.58621 6.36398 2.58621 7.89655C2.58621 8.53548 2.68996 9.14322 2.89747 9.71977C3.10498 10.2963 3.39318 10.8156 3.76207 11.2777L8.54736 6.49264C8.67272 6.36529 8.83226 6.30161 9.02598 6.30161C9.21969 6.30161 9.38107 6.36613 9.51011 6.49517C9.65096 6.63601 9.72138 6.799 9.72138 6.98414C9.72138 7.16927 9.65012 7.3331 9.50759 7.47563L4.7223 12.252C5.18452 12.621 5.70383 12.9069 6.28023 13.1097C6.85678 13.3124 7.46452 13.4138 8.10345 13.4138Z" fill="#039900"/>
</g>
</svg>
