<svg width="24" height="24" viewBox="0 0 24 24" fill="none" xmlns="http://www.w3.org/2000/svg">
<mask id="mask0_37032_15935" style="mask-type:alpha" maskUnits="userSpaceOnUse" x="0" y="0" width="24" height="24">
<rect width="24" height="24" fill="#D9D9D9"/>
</mask>
<g mask="url(#mask0_37032_15935)">
<path d="M12.573 16.4962C12.7295 16.3397 12.8077 16.1487 12.8077 15.923C12.8077 15.6973 12.7295 15.5063 12.573 15.35C12.4167 15.1937 12.2257 15.1155 12 15.1155C11.7743 15.1155 11.5833 15.1937 11.427 15.35C11.2705 15.5063 11.1923 15.6973 11.1923 15.923C11.1923 16.1487 11.2705 16.3397 11.427 16.4962C11.5833 16.6526 11.7743 16.7308 12 16.7308C12.2257 16.7308 12.4167 16.6526 12.573 16.4962ZM12.5345 12.8615C12.6782 12.718 12.75 12.5398 12.75 12.327V7.827C12.75 7.61417 12.6782 7.43592 12.5345 7.29225C12.391 7.14875 12.2128 7.077 12 7.077C11.7872 7.077 11.609 7.14875 11.4655 7.29225C11.3218 7.43592 11.25 7.61417 11.25 7.827V12.327C11.25 12.5398 11.3218 12.718 11.4655 12.8615C11.609 13.0052 11.7872 13.077 12 13.077C12.2128 13.077 12.391 13.0052 12.5345 12.8615ZM8.8615 19.5H6.30775C5.80908 19.5 5.38308 19.3234 5.02975 18.9703C4.67658 18.6169 4.5 18.1909 4.5 17.6923V15.1385L2.64225 13.2653C2.47175 13.0846 2.34292 12.8847 2.25575 12.6655C2.16858 12.4462 2.125 12.2243 2.125 12C2.125 11.7757 2.16858 11.5538 2.25575 11.3345C2.34292 11.1153 2.47175 10.9154 2.64225 10.7348L4.5 8.8615V6.30775C4.5 5.80908 4.67658 5.38308 5.02975 5.02975C5.38308 4.67658 5.80908 4.5 6.30775 4.5H8.8615L10.7348 2.64225C10.9154 2.47175 11.1153 2.34292 11.3345 2.25575C11.5538 2.16858 11.7757 2.125 12 2.125C12.2243 2.125 12.4462 2.16858 12.6655 2.25575C12.8847 2.34292 13.0846 2.47175 13.2653 2.64225L15.1385 4.5H17.6923C18.1909 4.5 18.6169 4.67658 18.9703 5.02975C19.3234 5.38308 19.5 5.80908 19.5 6.30775V8.8615L21.3577 10.7348C21.5282 10.9154 21.6571 11.1153 21.7443 11.3345C21.8314 11.5538 21.875 11.7757 21.875 12C21.875 12.2243 21.8314 12.4462 21.7443 12.6655C21.6571 12.8847 21.5282 13.0846 21.3577 13.2653L19.5 15.1385V17.6923C19.5 18.1909 19.3234 18.6169 18.9703 18.9703C18.6169 19.3234 18.1909 19.5 17.6923 19.5H15.1385L13.2653 21.3577C13.0846 21.5282 12.8847 21.6571 12.6655 21.7443C12.4462 21.8314 12.2243 21.875 12 21.875C11.7757 21.875 11.5538 21.8314 11.3345 21.7443C11.1153 21.6571 10.9154 21.5282 10.7348 21.3577L8.8615 19.5ZM9.5 18L11.7788 20.2788C11.8364 20.3364 11.9102 20.3652 12 20.3652C12.0898 20.3652 12.1636 20.3364 12.2213 20.2788L14.5 18H17.6923C17.7821 18 17.8558 17.9712 17.9135 17.9135C17.9712 17.8558 18 17.7821 18 17.6923V14.5L20.2788 12.2213C20.3364 12.1636 20.3652 12.0898 20.3652 12C20.3652 11.9102 20.3364 11.8364 20.2788 11.7788L18 9.5V6.30775C18 6.21792 17.9712 6.14417 17.9135 6.0865C17.8558 6.02883 17.7821 6 17.6923 6H14.5L12.2213 3.72125C12.1636 3.66358 12.0898 3.63475 12 3.63475C11.9102 3.63475 11.8364 3.66358 11.7788 3.72125L9.5 6H6.30775C6.21792 6 6.14417 6.02883 6.0865 6.0865C6.02883 6.14417 6 6.21792 6 6.30775V9.5L3.72125 11.7788C3.66358 11.8364 3.63475 11.9102 3.63475 12C3.63475 12.0898 3.66358 12.1636 3.72125 12.2213L6 14.5V17.6923C6 17.7821 6.02883 17.8558 6.0865 17.9135C6.14417 17.9712 6.21792 18 6.30775 18H9.5Z" fill="#CF9F02"/>
</g>
</svg>
